<svg xmlns="http://www.w3.org/2000/svg" width="807" height="208" viewBox="0 0 807 208" fill="none"><path d="M701.446 6.60388e-06C761.378 0.282778 807.103 47.7682 807 104.04C806.918 161.523 759.568 207.817 701.117 207.736C644.063 207.676 595.562 162.775 595.521 103.717C595.521 46.2938 642.891 -0.0201914 701.446 6.60388e-06ZM701.343 8.68513C646.9 8.90731 604.444 51.828 604.465 103.939C604.506 156.332 647.476 198.99 701.24 199.051C753.997 199.112 798.18 157.564 798.221 103.939C798.262 50.7777 754.798 8.88711 701.343 8.68513Z" fill="#F8874F"></path><path d="M783.051 86.102C784.495 84.0418 787.751 84.7063 788.239 87.1604L788.251 87.225C789.32 92.6098 789.879 98.1743 789.879 103.868C789.879 151.592 750.725 190.206 702.144 190.38C682.803 190.449 664.906 184.393 650.345 174.074C649.036 173.147 648.688 171.378 649.537 170.029L657.642 157.165C658.384 155.987 659.846 155.454 661.191 155.87L687.263 163.933C707.43 170.17 729.38 162.745 741.362 145.632L783.047 86.104L783.051 86.102Z" fill="#F8874F"></path><path d="M679.089 122.715L707.192 78.2571C707.918 77.1098 709.33 76.5726 710.652 76.9402L726.51 81.3554C728.5 81.9089 729.382 84.1953 728.266 85.9061L703.271 124.199C700.175 128.944 694.256 131.107 688.756 129.503L680.839 127.219C678.883 126.655 678.012 124.415 679.087 122.713L679.089 122.715Z" fill="#F8874F"></path><path d="M621.482 129.182C620.041 131.376 616.651 130.865 615.921 128.354C613.715 120.764 612.535 112.747 612.535 104.462C612.535 73.9853 628.51 47.1765 652.68 31.6705C654.257 30.6586 656.381 31.2464 657.174 32.9248L666.992 53.6802C668.065 55.9485 667.878 58.5985 666.496 60.699L621.482 129.184V129.182Z" fill="#F8874F"></path><path d="M667.324 29.4829C664.567 28.6589 664.364 24.894 667.018 23.7932C677.571 19.4223 689.169 17.0067 701.34 17.0067C732.24 17.0067 759.437 32.5753 775.247 56.1624C776.83 58.5256 774.519 61.5391 771.764 60.7151L667.322 29.4809L667.324 29.4829Z" fill="#F8874F"></path><path d="M101.045 81.9917C99.9348 81.9917 99.0507 82.8602 99.0096 83.9307C98.8246 88.8186 98.3928 101.503 97.9816 107.744C97.2003 119.398 92.4304 129.235 83.014 136.506C76.7844 141.333 69.6295 143.919 61.5084 143.878C44.6904 143.798 9.67687 143.757 1.69962 143.757C0.794982 143.757 0.0548264 143.03 0.0548264 142.141C0.0548264 128.649 -0.068533 112.592 0.0548264 99.3216C0.116506 92.0099 2.72762 84.7386 5.95552 78.2147C10.7254 68.5399 18.9494 62.8239 29.3938 60.0365C33.4441 58.9458 52.2153 58.4207 57.4169 58.4005C59.3701 58.4005 59.7608 58.7237 59.7608 60.5819C59.8019 66.0353 59.8019 71.4888 59.7608 76.9422C59.7608 78.6793 59.2057 79.2044 57.3964 79.2246C53.5517 79.265 39.2009 79.8507 35.8907 80.2749C31.8404 80.8202 28.2425 83.0622 25.9809 86.3949C24.2127 89.0206 24.1099 89.0206 22.6913 91.8483C22.3418 92.5351 21.581 96.1505 21.5605 96.9382C21.396 102.594 21.2932 116.571 21.2521 121.337C21.2521 122.226 21.9922 122.953 22.8763 122.953C29.2499 122.994 52.277 123.095 59.1029 122.994C65.9287 122.893 71.0893 119.964 74.5844 114.046C77.36 109.34 78.5525 104.411 78.4703 99.0186C78.3264 88.3945 78.388 66.7019 78.388 66.4999C78.388 65.9545 78.4086 65.5102 78.4086 65.1466C78.4292 64.2579 79.1488 63.551 80.0534 63.551H178.946C182.072 63.5308 184.909 61.5312 185.526 58.5015C185.69 57.7542 185.731 55.4314 185.731 53.8358C185.731 52.947 186.471 52.2401 187.355 52.2401C191.92 52.2199 199.712 52.1997 204.646 52.2401C205.551 52.2401 206.271 52.9672 206.271 53.856V54.8659C206.312 69.368 194.51 81.5878 179.748 81.9513C179.502 81.9513 113.196 81.9311 101.045 81.9917Z" fill="#485461"></path><path d="M168.05 117.601C167.371 118.186 167.31 119.217 167.906 119.883C168.214 120.226 168.646 120.428 169.119 120.428C174.321 120.509 183.12 120.57 188.096 120.469C193.421 120.388 197.779 118.146 200.925 113.925C203.742 110.168 205.531 106.047 205.345 101.2C205.202 97.4027 205.181 91.0404 205.181 86.6574C205.181 85.7687 205.921 85.0416 206.826 85.0416C210.465 85.0214 219.306 85.0012 223.911 85.0416C224.816 85.0416 225.535 85.7687 225.535 86.6574C225.515 90.5758 225.474 100.634 225.618 105.179C225.905 113.783 222.39 120.812 216.695 127.053C211.061 133.194 203.865 136.567 195.908 138.627C194.88 138.889 161.409 138.91 145.783 138.849C144.18 138.849 142.946 139.233 141.713 140.303C135.339 145.858 121.934 157.391 117.925 160.824C117.267 161.39 116.301 161.35 115.684 160.764L103.615 149.069C102.978 148.443 102.957 147.413 103.595 146.787C103.615 146.767 103.636 146.746 103.677 146.726C112.065 139.415 158.202 99.0994 171.73 87.2633C172.367 86.6978 173.354 86.718 173.971 87.3239C176.253 89.5255 182.976 95.9283 186.41 99.2003C187.068 99.8265 187.068 100.836 186.451 101.483C186.43 101.503 186.389 101.543 186.369 101.564C182.606 104.836 171.812 114.268 168.05 117.601Z" fill="#485461"></path><path d="M285.879 141.879C284.686 140.687 284.707 138.768 285.92 137.597C285.941 137.576 285.961 137.556 285.982 137.556C295.09 129.235 328.87 99.9071 330.124 98.6549C332.118 96.6553 333.249 94.2517 333.249 91.4038C333.27 86.6977 330.247 83.7487 325.436 83.6276C323.791 83.5872 314.663 83.6074 309.79 83.6276C308.084 83.6276 306.706 84.9808 306.706 86.6573C306.706 93.7064 306.727 105.926 306.706 106.613C306.583 108.875 306.089 109.218 303.848 109.279H288.84C287.133 109.279 285.756 107.926 285.756 106.249C285.735 94.7162 285.673 78.9416 285.673 67.8529C285.673 66.1765 287.051 64.8232 288.757 64.8232C296.179 64.8232 315.136 64.803 324.573 64.7828C332.221 64.7627 339.088 67.0248 344.721 72.1147C352.226 78.9012 355.371 87.4046 353.398 97.2814C352.185 103.341 348.874 108.552 344.475 112.955C341.123 116.308 308.7 144.242 299.901 151.796C298.667 152.846 296.817 152.785 295.665 151.634C293.178 149.19 288.593 144.585 285.879 141.879Z" fill="#485461"></path><path d="M210.034 138.162C209.417 137.516 209.437 136.486 210.095 135.88C210.11 135.866 210.122 135.853 210.136 135.84C217.99 128.932 254.566 96.7161 255.471 95.7466C257.506 93.5652 258.534 91.0203 258.37 88.0108C258.144 84.2741 256.108 81.8504 252.366 81.1031C251.009 80.8809 249.653 80.7799 248.275 80.8405C243.485 80.9213 219.018 81.0627 212.398 81.1435C211.493 81.1637 210.753 80.4365 210.733 79.5478V79.5276C210.733 76.2758 210.712 67.6916 210.733 63.6116C210.733 62.7229 211.473 61.9958 212.377 61.9958C219.532 62.0362 247.72 62.1776 251.482 62.2382C265.072 62.5209 276.36 72.1958 278.745 85.3648C279.855 91.4646 278.416 96.9787 275.517 102.271C273.358 106.229 270.5 109.643 267.211 112.733C257.876 121.519 230.08 144.969 224.035 150.059C223.377 150.604 222.39 150.564 221.794 149.958C218.381 146.605 212.213 140.404 210.034 138.162Z" fill="#485461"></path><path d="M292.869 122.993C293.465 123.66 293.424 124.67 292.746 125.276L292.725 125.296C285.488 131.436 249.447 161.996 242.765 167.651C242.107 168.217 241.099 168.156 240.503 167.53C237.912 164.803 231.374 157.936 228.948 155.33C228.331 154.664 228.373 153.654 229.051 153.048C229.051 153.048 229.072 153.028 229.092 153.028C236.329 146.827 271.898 116.449 279.032 110.329C279.711 109.744 280.718 109.804 281.335 110.471C283.946 113.319 290.69 120.59 292.869 122.993Z" fill="#485461"></path><path d="M153.966 144.626H190.357C195.579 144.626 199.814 148.786 199.814 153.917C199.814 159.047 195.579 163.208 190.357 163.208H153.966C148.744 163.208 144.508 159.047 144.508 153.917C144.508 148.786 148.744 144.626 153.966 144.626Z" fill="#485461"></path><path d="M172.162 165.308C177.446 165.308 181.722 169.51 181.722 174.7C181.722 179.891 177.446 184.093 172.162 184.093C166.878 184.093 162.602 179.891 162.602 174.7C162.602 169.51 166.899 165.308 172.162 165.308Z" fill="#485461"></path><path d="M514.639 139.711H551.03C556.252 139.711 560.487 143.872 560.487 149.002C560.487 154.133 556.252 158.293 551.03 158.293H514.639C509.416 158.293 505.181 154.133 505.181 149.002C505.181 143.872 509.416 139.711 514.639 139.711Z" fill="#485461"></path><path d="M532.834 160.386C538.118 160.386 542.394 164.587 542.394 169.778C542.394 174.969 538.118 179.17 532.834 179.17C527.55 179.17 523.273 174.969 523.273 169.778C523.273 164.608 527.55 160.386 532.834 160.386Z" fill="#485461"></path><path d="M404.211 139.711H440.602C445.824 139.711 450.06 143.872 450.06 149.002C450.06 154.133 445.824 158.293 440.602 158.293H404.211C398.989 158.293 394.753 154.133 394.753 149.002C394.753 143.872 398.989 139.711 404.211 139.711Z" fill="#485461"></path><path d="M469.344 155.139C475.687 149.695 494.298 133.666 505.453 123.882L505.567 123.814L542.19 124.567C559.347 124.741 573.348 111.127 573.348 94.272V70.8141C573.348 69.1417 571.967 67.7844 570.264 67.7844H554.828C553.14 67.7844 551.765 69.1195 551.744 70.7778L551.746 70.7798L551.454 94.8194C551.386 100.344 546.814 104.789 541.191 104.797L521.809 104.626L521.714 104.587C522.189 103.309 522.568 101.988 522.841 100.624C524.815 90.7475 521.669 82.2442 514.165 75.4576C508.531 70.3677 501.664 68.1056 494.016 68.1258C484.579 68.146 465.623 68.1662 458.201 68.1662C456.494 68.1662 455.117 69.5194 455.117 71.1959C455.117 82.2845 455.178 98.0592 455.199 109.592C455.199 111.269 456.576 112.622 458.283 112.622H473.292C475.533 112.561 476.026 112.218 476.149 109.956C476.17 109.269 476.149 97.0493 476.149 90.0002C476.149 88.3237 477.527 86.9705 479.233 86.9705C484.106 86.9503 493.235 86.9301 494.88 86.9705C499.691 87.0917 502.713 90.0406 502.692 94.7467C502.692 97.5946 501.562 99.9982 499.567 101.998C498.313 103.25 464.533 132.578 455.425 140.899C455.405 140.899 455.384 140.919 455.363 140.939C454.15 142.111 454.13 144.03 455.322 145.221C458.016 147.948 462.601 152.533 465.109 154.977C466.26 156.128 468.111 156.189 469.344 155.139Z" fill="#485461"></path><path d="M427.267 117.282H411.391C404.625 117.282 399.121 111.927 399.055 105.282L398.42 41.2747C398.403 39.6124 397.028 38.2753 395.336 38.2753H381.149C379.445 38.2753 378.065 39.6326 378.065 41.305L378.082 105.062C378.086 121.792 391.892 135.351 408.922 135.351H447.126C448.831 135.351 450.21 133.994 450.21 132.321L450.2 86.6697C450.2 84.9973 448.818 83.64 447.116 83.64H433.433C431.731 83.64 430.349 84.9973 430.349 86.6697V114.254C430.349 115.926 428.968 117.284 427.265 117.284L427.267 117.282Z" fill="#485461"></path></svg>